<?xml version="1.0" standalone="no"?>
<!DOCTYPE svg PUBLIC "-//W3C//DTD SVG 20010904//EN"
 "http://www.w3.org/TR/2001/REC-SVG-20010904/DTD/svg10.dtd">
<svg version="1.0" xmlns="http://www.w3.org/2000/svg"
 width="500.000000pt" height="500.000000pt" viewBox="0 0 500.000000 500.000000"
 preserveAspectRatio="xMidYMid meet">
<metadata>
Created by potrace 1.14, written by Peter Selinger 2001-2017
</metadata>
<g transform="translate(0.000000,500.000000) scale(0.100000,-0.100000)"
fill="#000000" stroke="none">
<path d="M2347 4774 c-1 -1 -25 -4 -54 -8 -124 -14 -295 -100 -374 -188 -12
-13 -31 -17 -90 -16 -130 2 -216 -16 -355 -72 -104 -42 -244 -134 -320 -209
-44 -44 -60 -53 -125 -70 -97 -25 -160 -54 -230 -108 -137 -103 -241 -265
-274 -423 -3 -14 -29 -51 -58 -83 -94 -104 -135 -203 -173 -422 -16 -96 -19
-102 -61 -144 -117 -118 -188 -396 -161 -626 11 -92 43 -224 67 -282 21 -47
21 -53 7 -75 -43 -66 -47 -354 -6 -483 28 -89 76 -184 141 -283 87 -131 164
-200 295 -267 62 -31 77 -44 120 -107 108 -159 233 -247 439 -311 44 -13 107
-30 141 -37 54 -11 67 -19 136 -85 145 -139 280 -208 498 -254 122 -26 336
-22 440 9 60 17 88 20 140 15 65 -7 178 -7 189 -1 3 2 23 7 44 10 21 3 47 11
58 16 10 6 65 13 122 15 56 2 113 7 127 10 14 3 39 8 55 10 178 32 455 159
596 275 30 24 74 68 98 97 32 39 50 53 69 53 14 0 59 16 100 36 126 61 265
212 342 369 39 83 44 88 95 111 104 48 205 141 271 251 16 26 35 57 42 68 49
79 129 277 146 360 4 17 9 41 12 55 3 14 6 84 7 155 1 72 6 136 10 142 15 23
53 167 57 218 7 75 5 282 -3 348 -19 158 -31 176 -156 231 -126 56 -242 72
-301 41 -98 -51 -267 -69 -457 -51 -129 13 -147 22 -164 90 -13 53 -26 66 -71
73 -86 13 -128 56 -128 130 0 41 -24 70 -66 78 -47 8 -106 46 -131 82 -41 60
-52 137 -32 237 l12 57 -51 51 c-67 66 -93 123 -94 202 0 89 17 158 62 252 38
82 39 85 25 129 -7 25 -26 62 -41 83 -141 184 -408 270 -678 218 -73 -15 -82
-14 -135 3 -46 16 -165 33 -174 25z"/>
<path d="M3863 4229 c-18 -5 -35 -14 -38 -19 -3 -5 -13 -51 -21 -102 -17 -103
-39 -161 -85 -219 -17 -22 -31 -51 -31 -65 0 -82 175 -144 336 -120 115 18
162 151 126 357 -16 91 -45 139 -95 156 -50 17 -150 23 -192 12z"/>
<path d="M4680 3944 c-8 -1 -31 -5 -51 -9 -32 -5 -41 -13 -75 -71 -21 -37 -67
-95 -102 -130 -60 -61 -63 -67 -61 -107 1 -23 6 -46 9 -52 4 -5 10 -22 14 -37
11 -49 48 -63 156 -62 72 1 108 6 148 23 114 46 166 115 156 206 -11 99 -42
182 -80 216 -18 16 -83 29 -114 23z"/>
</g>
</svg>
